<svg xmlns="http://www.w3.org/2000/svg" viewBox="0 0 245.63 245.29"><defs><style>.cls-1{fill:#1183c6;}.cls-2,.cls-4{fill:#ec1e35;}.cls-3{fill:#ffcd32;}.cls-4,.cls-5,.cls-8{fill-rule:evenodd;}.cls-6{fill:#fff;}.cls-7,.cls-8{fill:#231f20;}</style></defs><title>CEC-Logo-Main-CircleText-Colorful-LightBG</title><g id="Layer_2" data-name="Layer 2"><g id="Layer_1-2" data-name="Layer 1"><circle class="cls-1" cx="122.82" cy="122.64" r="99.46"/><path class="cls-2" d="M104.45,186.53a7.68,7.68,0,0,0-3.83-6.72l-6.15-3.55a3.29,3.29,0,0,0-1.65-.44,3.32,3.32,0,0,0-1.66.44L85,179.81a7.65,7.65,0,0,0-3.82,6.72v.65l-.32-.56a6.2,6.2,0,0,1,1.4-7.83v-.36a6.18,6.18,0,0,1,6.13-6.17h2.19a1,1,0,0,0,.9-.52l11.84-20.51,3.5,1.3L95.58,172a.16.16,0,0,0,0,.18.17.17,0,0,0,.15.08h1.51a6.19,6.19,0,0,1,6.14,6.17v.36a6.19,6.19,0,0,1,1.39,7.83l-.32.56ZM89.18,174.64a7.61,7.61,0,0,0-6.6,3.88l0,0a6.06,6.06,0,0,1,.53-.35l6.18-3.57Zm12.61,3.13.75.44c.19.11.36.22.53.34l0,0a7.67,7.67,0,0,0-6.68-3.91Z"/><path class="cls-2" d="M140.85,186.62a6.21,6.21,0,0,1,1.4-7.83v-.36a6.19,6.19,0,0,1,6.14-6.17h1.51a.17.17,0,0,0,.15-.09.14.14,0,0,0,0-.17L139,152.8l3.15-1.92,12,20.86a1,1,0,0,0,.9.52h2.18a6.19,6.19,0,0,1,6.14,6.17v.36a6.21,6.21,0,0,1,1.4,7.83l-.33.56v-.65a7.64,7.64,0,0,0-3.83-6.72l-6.14-3.55a3.35,3.35,0,0,0-1.66-.44,3.29,3.29,0,0,0-1.65.44L145,179.81a7.68,7.68,0,0,0-3.83,6.72v.65Zm20.94-8.85.75.44a6.06,6.06,0,0,1,.53.35l0,0a7.68,7.68,0,0,0-6.68-3.91Zm-12.61-3.13a7.58,7.58,0,0,0-6.6,3.88l0,0c.17-.12.34-.23.53-.34l6.17-3.57Z"/><path class="cls-1" d="M122.82,159.39c-4.77-4.06-12.52-8.35-24.27-13.47a8.37,8.37,0,0,1-4.93-7.62V120.46H152V138.3a8.36,8.36,0,0,1-4.92,7.62C135.34,151,127.59,155.33,122.82,159.39Z"/><rect class="cls-2" x="93.61" y="93.3" width="58.39" height="27.16"/><path class="cls-3" d="M118,64.59l1.37,4.46L105.41,93h34.17l-5.15-8.77,3.76-1.07-2.29-4,3.83-1.35-2.32-4,4.23-1.41-6.93-12.5c-4.22-7.31-12.2-8.52-19.88-5.39-1.49.61-2.94,3.24-2.94,3.24l2.56,1.56Z"/><path class="cls-3" d="M139.2,149.52,134,152.18l4.8,8.32a5.88,5.88,0,0,0,2.15-8,5.86,5.86,0,0,0,8,2.15L144.55,147Z"/><path class="cls-3" d="M125,158.69c-.78.59-1.5,1.17-2.15,1.76-.66-.58-1.37-1.16-2.14-1.75-1.11-.84-2.35-1.69-3.69-2.53-2.33,33-4.1,39.14-9.06,44.11,1,1.73,7.19,3.37,10.68-2.41,0,1.82,2.71,5.68,4.21,6.54,1.5-.86,4.22-4.72,4.22-6.54,3.49,5.78,9.68,4.14,10.68,2.41-5-5-6.74-11.12-9.07-44.12C127.31,157,126.07,157.85,125,158.69Z"/><polygon class="cls-3" points="102.91 66.7 102.91 49.99 98.14 49.99 98.14 47.11 102.91 47.11 102.91 42.33 105.8 42.33 105.8 47.11 110.57 47.11 110.57 49.99 105.8 49.99 105.8 66.7 102.91 66.7"/><path class="cls-3" d="M106.43,149.52,101.08,147l-4.38,7.58a5.88,5.88,0,0,0,8-2.15,5.88,5.88,0,0,0,2.14,8l4.81-8.33Z"/><path class="cls-3" d="M93.53,101.74v37.48L80.12,162.46c-9.23,16-16.15,12-16.15,12l11.58-20.07c-10,17.05-16.81,13.14-16.81,13.14l12.17-21.08c-10,17.05-16.82,13.15-16.82,13.15L66,138.94c-9.08,15.38-15.85,11.47-15.85,11.47l12.39-21.47c-8.64,14.64-15.42,10.73-15.42,10.73l12.44-21.56C52.73,130,45.81,126,45.81,126L67.39,88.6s4.66-8.09,4.66-8.09a49.41,49.41,0,0,1,4.81-7.06,20.32,20.32,0,0,1,1.43-1.58c2.23-2.25,4.66-3.67,7.44-3.67a6.85,6.85,0,0,1,6.66,8.44,6.73,6.73,0,0,1-6.66,5.24,6.63,6.63,0,0,1-2-.29,13.34,13.34,0,0,0,9.8,20.15Z"/><path class="cls-3" d="M186.06,118.11l12.44,21.56s-6.78,3.91-15.42-10.73l12.39,21.47s-6.77,3.91-15.85-11.47l11.92,20.65s-6.77,3.9-16.82-13.14l12.17,21.07s-6.78,3.91-16.82-13.15l11.59,20.08s-6.92,4-16.15-12L152.1,139.22V101.74a13.34,13.34,0,0,0,9.8-20.15,6.63,6.63,0,0,1-2,.29,6.84,6.84,0,0,1,0-13.68c2.78,0,5.21,1.42,7.44,3.67a20.32,20.32,0,0,1,1.43,1.58c1.68,2,9.43,15.06,9.43,15.06S199.82,126,199.82,126,192.89,130,186.06,118.11Z"/><path class="cls-3" d="M115.39,129.4a6.63,6.63,0,0,0-1.52-1.56,6.27,6.27,0,0,0-1.51,1.44,6.63,6.63,0,0,0,1.52,1.56A6.47,6.47,0,0,0,115.39,129.4Z"/><path class="cls-3" d="M108.64,120.46a17.54,17.54,0,0,1-4.45-3.79A21.14,21.14,0,0,1,99,120.46a31.52,31.52,0,0,1,6.78,3.79A13,13,0,0,1,108.64,120.46Z"/><path class="cls-3" d="M141.43,116.67a17.59,17.59,0,0,1-4.46,3.79,13,13,0,0,1,2.9,3.79,31.36,31.36,0,0,1,6.79-3.79A21.14,21.14,0,0,1,141.43,116.67Z"/><path class="cls-3" d="M119.2,103.43l-2.21.78a.4.4,0,0,0,0,.76l2.21.78a.39.39,0,0,1,.23.55l-1,2.1a.41.41,0,0,0,.55.54l2.11-1a.41.41,0,0,1,.56.23l.79,2.19a.41.41,0,0,0,.76,0l.79-2.19a.4.4,0,0,1,.55-.23l2.12,1a.4.4,0,0,0,.54-.54l-1-2.1a.41.41,0,0,1,.23-.55l2.21-.78a.4.4,0,0,0,0-.76l-2.21-.78a.4.4,0,0,1-.23-.55l1-2.1a.4.4,0,0,0-.54-.53l-2.12,1A.41.41,0,0,1,124,101l-.79-2.19a.4.4,0,0,0-.76,0l-.79,2.19a.42.42,0,0,1-.56.23l-2.11-1a.4.4,0,0,0-.55.53l1,2.1A.39.39,0,0,1,119.2,103.43Z"/><path class="cls-3" d="M134.49,96.44c2.59,3.1,4.69,7.66,2.13,12.23-1.36,2.43-5,5.13-7.49,5.13-3.4,0-4,1.32-6.3,1.32s-2.92-1.32-6.32-1.32c-2.47,0-6.13-2.7-7.49-5.13-2.56-4.57-.46-9.13,2.13-12.23a11.52,11.52,0,0,0-7.47,14.35c1.41,4.51,5.34,7.69,9.73,9.62-.87,1.09-1.87,2.3-2.67,3.54,3.17.8,7.18,3.21,8.08,6.5V142.1c-1.57,1.37-4.08,3-4.08,5.33,0,1.08,1,2.95,4,2.95a5.69,5.69,0,0,0,4,1.68,5.58,5.58,0,0,0,4-1.68c3.1,0,4.05-1.87,4.05-2.95,0-2.31-2.51-4-4.08-5.33V130.45c.9-3.29,4.91-5.7,8.08-6.5-.8-1.24-1.75-2.45-2.62-3.54,4.39-1.93,8.27-5.11,9.68-9.62A11.52,11.52,0,0,0,134.49,96.44Z"/><path class="cls-3" d="M133.28,129.28a6.27,6.27,0,0,0-1.51-1.44,6.63,6.63,0,0,0-1.52,1.56,6.47,6.47,0,0,0,1.51,1.44A6.83,6.83,0,0,0,133.28,129.28Z"/><path class="cls-3" d="M115.88,141a.55.55,0,0,1-.4-.18c-.84-.84-.89-4.82-.89-5.63a1.28,1.28,0,0,1-1.25-1.3v-.14h1.39A1.3,1.3,0,0,1,116,135V141Z"/><path class="cls-3" d="M129.61,141V135a1.3,1.3,0,0,1,1.31-1.3h1.39v.14a1.28,1.28,0,0,1-1.25,1.3c0,.81-.05,4.79-.89,5.63a.55.55,0,0,1-.4.18Z"/><path class="cls-3" d="M146.67,134.09a6.78,6.78,0,0,1,1.2.1A5.92,5.92,0,0,0,136.8,137a5.85,5.85,0,0,0,3,5.12,6.67,6.67,0,0,1-.11-1.19A6.91,6.91,0,0,1,146.67,134.09Z"/><path class="cls-3" d="M104.06,134.89a1.55,1.55,0,1,0,1.56,1.54A1.55,1.55,0,0,0,104.06,134.89Z"/><path class="cls-3" d="M104.06,138.75a1.55,1.55,0,1,0,1.56,1.54A1.55,1.55,0,0,0,104.06,138.75Z"/><path class="cls-3" d="M107.28,139.09a1.56,1.56,0,0,0,2-1,1.55,1.55,0,0,0-1-1.94,1.56,1.56,0,0,0-2,1A1.55,1.55,0,0,0,107.28,139.09Z"/><path class="cls-3" d="M107.61,134.22a1.54,1.54,0,0,0-.34-2.16,1.57,1.57,0,0,0-2.18.34,1.54,1.54,0,0,0,.34,2.16A1.57,1.57,0,0,0,107.61,134.22Z"/><path class="cls-3" d="M103,132.4a1.56,1.56,0,0,0-2.17-.34,1.53,1.53,0,0,0-.35,2.16,1.57,1.57,0,0,0,2.18.34A1.54,1.54,0,0,0,103,132.4Z"/><path class="cls-3" d="M99.87,136.16a1.55,1.55,0,0,0-1,1.94,1.56,1.56,0,0,0,2,1,1.54,1.54,0,0,0,1-1.94A1.56,1.56,0,0,0,99.87,136.16Z"/><path class="cls-4" d="M117.92,68.43c-3.5-1.87-8.68-2.43-12.37-3.33V63.5a49.93,49.93,0,0,0,7.39.58.27.27,0,0,0,.21-.43c-.57-.7-2-1.35-4.18-1.67-4-.58-5.33.62-5.81,2.75-1.24-.92-2-3.62-.4-5.88s4.27-2.81,8.93-1.6c-.34,2,2.55,2,2.8,2.72.32.86-.06,2,.32,2.66.67,1.16,1.91,1.2,3,3.11a8.79,8.79,0,0,1,.89,2.07A.54.54,0,0,1,117.92,68.43Z"/><path class="cls-5" d="M119.48,148.28a1,1,0,0,1-.92-.34,1.1,1.1,0,0,1-.17-.25c-.12-.21-.27-.47-.59-.49h-.3a1.2,1.2,0,0,1-.43,0s0,0,0-.06a.16.16,0,0,1,0-.14,1.83,1.83,0,0,1,1.13-.29,2.94,2.94,0,0,1,.93.14c.27.1.71.33.77.7A.67.67,0,0,1,119.48,148.28Z"/><path class="cls-5" d="M128.6,147.14s0,.05,0,.06a1.09,1.09,0,0,1-.41,0,1.68,1.68,0,0,0-.31,0c-.32,0-.47.28-.59.49a1.1,1.1,0,0,1-.17.25,1,1,0,0,1-.92.34.67.67,0,0,1-.44-.73c.06-.37.5-.6.76-.7a2.63,2.63,0,0,1,2.07.15A.16.16,0,0,1,128.6,147.14Z"/><path class="cls-6" d="M92.82,196.25a11.78,11.78,0,0,1-11.63-9.78A7.67,7.67,0,0,1,85,179.8l6.14-3.55a3.36,3.36,0,0,1,1.67-.44,3.3,3.3,0,0,1,1.66.44l6.15,3.55a7.69,7.69,0,0,1,3.82,6.62A11.8,11.8,0,0,1,92.82,196.25Z"/><path class="cls-7" d="M193.31,127.49a9.66,9.66,0,0,0,3.59.71,7.76,7.76,0,0,0,3.71-.86l1.38-.8-.79-1.37L175,79.72a51.34,51.34,0,0,0-5-7.28,21.06,21.06,0,0,0-1.53-1.69C165.7,68,162.9,66.6,159.9,66.6a8.44,8.44,0,0,0,0,16.88,9.08,9.08,0,0,0,1.17-.08,11.71,11.71,0,0,1-6.68,16.18V90.92h-14.5l-3.37-5.83h.24a4.81,4.81,0,0,0,2.23-.53l1.38-.8-.8-1.38-1.51-2.63h.23a4.49,4.49,0,0,0,2.24-.54l1.37-.79-.79-1.38-1.51-2.63h.23a4.66,4.66,0,0,0,2.24-.53l1.38-.8-.8-1.38-6.92-12c-3-5.13-7.5-7.85-13.09-7.85a21.56,21.56,0,0,0-8.08,1.72,5.68,5.68,0,0,0-2.77,2,17.36,17.36,0,0,0-4.28-.61h-.37V51.34h4.77V45.76h-4.77V41h-5.57v4.77H96.8v5.58h4.77v6.44a1.71,1.71,0,0,1-.11.14,6.19,6.19,0,0,0,.11,7.49V68h5.57v-1l1.43.28c2.94.58,6.28,1.23,8.6,2.47a1.91,1.91,0,0,0,.62.22L105.74,90.92H91.22v8.66A11.74,11.74,0,0,1,84.56,83.4a9.2,9.2,0,0,0,1.17.08,8.44,8.44,0,0,0,0-16.88c-3,0-5.8,1.36-8.57,4.15a21.25,21.25,0,0,0-1.53,1.69,42,42,0,0,0-2.55,3.41c-.8,1.18-1.61,2.48-2.41,3.87L44.43,125.17l-.8,1.37,1.39.8a7.75,7.75,0,0,0,3.7.86,9.67,9.67,0,0,0,3.6-.71l-6.57,11.38L45,140.25l1.37.8a6.41,6.41,0,0,0,3.06.69A10,10,0,0,0,54,140.51l-5.25,9.11L48,151l1.38.79a6,6,0,0,0,2.93.66,10.17,10.17,0,0,0,4.87-1.36l-4.45,7.7-.8,1.38,1.38.8a5.66,5.66,0,0,0,2.7.59,10.22,10.22,0,0,0,5.3-1.64l-3.93,6.8-.8,1.38,1.39.79a5.39,5.39,0,0,0,2.69.6,10.27,10.27,0,0,0,5.3-1.64l-3.35,5.8-.8,1.38,1.38.79a6,6,0,0,0,2.93.66c3.54,0,9.09-2.29,15.4-13.23l11.23-19.46a10.6,10.6,0,0,0,4.85,4.32c.28.11.55.24.84.36l-3.09,5.36-.8,1.37,1.38.8a7.5,7.5,0,0,0,2.5.9l-8,13.94h-2A7.62,7.62,0,0,0,80.86,178a2.47,2.47,0,0,0-.19.36,7.59,7.59,0,0,0-1.17,8.72,13.58,13.58,0,0,0,26.63,0,7.57,7.57,0,0,0-1.16-8.73l-.19-.36a7.62,7.62,0,0,0-6.92-7.13l6.19-10.71a7.51,7.51,0,0,0,2,1.72l1.38.79.79-1.37,3.63-6.29c1.23.68,2.38,1.35,3.45,2-2.25,31.41-4,37.55-8.54,42.14l-.86.86.61,1.06c.82,1.42,3.07,2.42,5.45,2.42a8.81,8.81,0,0,0,6.05-2.4,13.63,13.63,0,0,0,4,4.7l.8.46.79-.46a13.63,13.63,0,0,0,4-4.7,8.81,8.81,0,0,0,6,2.4c2.39,0,4.64-1,5.46-2.42l.61-1.06-.86-.86c-4.59-4.59-6.29-10.73-8.54-42.15,1.07-.65,2.22-1.32,3.44-2l3.64,6.3.79,1.37,1.38-.79a7.64,7.64,0,0,0,2-1.72l6.18,10.71a7.61,7.61,0,0,0-6.91,7.13l-.19.36a7.59,7.59,0,0,0-1.16,8.72,13.58,13.58,0,0,0,26.63,0,7.58,7.58,0,0,0-1.17-8.72l-.18-.36a7.63,7.63,0,0,0-7.54-7.16h-2l-8.05-13.94a7.42,7.42,0,0,0,2.5-.9l1.38-.8-.8-1.37-3.09-5.36.82-.36a10.49,10.49,0,0,0,4.86-4.33l11.24,19.47c6.31,10.94,11.86,13.23,15.4,13.23a6.06,6.06,0,0,0,2.93-.66l1.37-.79-.79-1.38-3.35-5.8a10.27,10.27,0,0,0,5.3,1.64,5.48,5.48,0,0,0,2.7-.6l1.37-.79-.8-1.38-3.92-6.8a10.27,10.27,0,0,0,5.3,1.64,5.35,5.35,0,0,0,2.69-.6l1.39-.79-.8-1.38-4.45-7.7a10.17,10.17,0,0,0,4.87,1.36,6,6,0,0,0,2.93-.66l1.38-.8-.8-1.37-5.26-9.11a10,10,0,0,0,4.65,1.23,6.37,6.37,0,0,0,3.06-.69l1.38-.8-.8-1.38Zm6.16-1.63c-1.23.57-7.17,2.57-13.2-7.88L175,98.52a11.82,11.82,0,0,0,5.44,2.22h0a.23.23,0,0,0,.24-.2,20.17,20.17,0,0,0-.7-8.32Zm-34.9-13.5-1.89-3.27a24,24,0,0,0,5.84-4.87l.23.4a19.78,19.78,0,0,1,2.31,11.58C170.05,116,166.2,115.2,164.57,112.36Zm1.87,11.83c-1-.17-4.85-1-6.49-3.83L155.11,112a24,24,0,0,0,7.14-2.64l1.88,3.27A19.71,19.71,0,0,1,166.44,124.19Zm2.74-19.82-.32-.55a24.1,24.1,0,0,0,4.28-7.59l.22.39h0a19.7,19.7,0,0,1,2.31,11.58C174.67,108,170.82,107.21,169.18,104.37Zm4.18-23.73,4.61,8h0l0,.06a19.75,19.75,0,0,1,2.28,11.52c-1-.17-4.86-1-6.5-3.83l-.44-.78a24,24,0,0,0-.76-16.27ZM152.8,107.22a19,19,0,0,0,16.55-18.71,18.74,18.74,0,0,0-3.13-10.4.36.36,0,0,0-.48-.1.35.35,0,0,0-.1.49,18,18,0,0,1,3,10,18.24,18.24,0,0,1-15.85,18v-4.64a13.56,13.56,0,0,0,9.31-20.41.27.27,0,0,0-.29-.11,6.6,6.6,0,1,1-1.92-12.91c2.49,0,4.86,1.18,7.27,3.61a20.07,20.07,0,0,1,1.41,1.56h0a23.41,23.41,0,0,1-15.78,38.19Zm0,5.09c.6-.06,1.2-.13,1.79-.24l4.93,8.54a19.78,19.78,0,0,1,2.31,11.58c-1-.17-4.86-1-6.5-3.84L152.8,124Zm0,26V125l2.11,3.64a19.76,19.76,0,0,1,2.3,11.58,12.19,12.19,0,0,1-4.42-1.69C152.79,138.42,152.8,138.36,152.8,138.3ZM98.39,49.74V47.35h4.77V42.58h2.39v4.77h4.77v2.39h-4.77v6.85A5.1,5.1,0,0,0,103.16,58V49.74Zm10.55,15.82c-1.19-.23-2.32-.45-3.33-.7l-.06,0v1.61h-2.39V65a.27.27,0,0,0,.09,0,.25.25,0,0,0,.15-.18,3,3,0,0,1,2.15-2.52v1.48a48.07,48.07,0,0,0,7.39.57.51.51,0,0,0,.46-.29.49.49,0,0,0-.06-.54c-.67-.82-2.21-1.45-4.33-1.75-3.53-.51-5.3.22-6,2.53A4.38,4.38,0,0,1,103,59c1.55-2.19,4.08-2.65,8.47-1.55-.1,1.32,1.16,1.83,2,2.17.34.14.77.31.82.44a3.74,3.74,0,0,1,.12,1.27,2.68,2.68,0,0,0,.22,1.44,3.92,3.92,0,0,0,1.2,1.2,5.61,5.61,0,0,1,1.79,1.9,8.4,8.4,0,0,1,.85,2,.27.27,0,0,1-.09.3.27.27,0,0,1-.31,0C115.47,66.84,112,66.16,108.94,65.56Zm10.79-6.69a2.33,2.33,0,0,1,1.85-.18,2.38,2.38,0,1,1-3.81,1.91v-.2a1.48,1.48,0,0,0,1.46,1.3,1.46,1.46,0,0,0,.5-2.83Zm-.39,11.68a4.56,4.56,0,0,0,.67-1.93,5.18,5.18,0,0,0-.46-2.28,9.45,9.45,0,0,0-1.36-2.6c-.11-.12.08-.2.21-.1a3.09,3.09,0,0,0,1.32.41c3.6.41,4.83-2.63,4.09-5.29.32-.64,2-.39,3.36-.06a.31.31,0,0,0,.22-.57c-4.85-2.25-7.59-2.17-10.65-.43-2.22,1.26-3.47.7-3.72-.11,0-.05,0-.1,0-.14-.18-1.08.69-1.75,2.18-2.37a20.11,20.11,0,0,1,7.48-1.6c4.74,0,8.9,2.2,11.71,7.06l6.8,11.77c-.14.08-3.3,1.78-6.58-3.9h0a.23.23,0,0,0-.33-.09.26.26,0,0,0-.1.34h0l5.24,9.08c-.79.29-3.53.83-6.3-3.91a.25.25,0,1,0-.43.25l5.19,9c-.78.28-3.43.81-6.16-3.68a.25.25,0,0,0-.43.26l4.66,8.06a4.67,4.67,0,0,1-5.49-2.5.24.24,0,0,0-.28-.12.25.25,0,0,0-.18.24,10.24,10.24,0,0,0,1,4.25c-.86.06-3.28-.09-5.2-3.4a.23.23,0,0,0-.24-.13.25.25,0,0,0-.21.18s-.9,3.18-2.47,4.43c-1.56-1.25-2.45-4.4-2.46-4.43a.25.25,0,0,0-.21-.18.23.23,0,0,0-.24.13c-2,3.35-4.35,3.48-5.2,3.4a10.2,10.2,0,0,0,1-4.25.26.26,0,0,0-.18-.24.24.24,0,0,0-.28.12c-2.15,3.71-5.43,2.55-5.74,2.42ZM109.23,88.06s0,0,0,0a5.11,5.11,0,0,0,5.87-1.86,9.69,9.69,0,0,1-1,3.42.25.25,0,0,0,0,.22.25.25,0,0,0,.17.15s3.27.76,5.79-3.13c.35,1,1.24,3.3,2.63,4.29a.23.23,0,0,0,.14,0,.26.26,0,0,0,.15,0c1.39-1,2.28-3.25,2.63-4.29,2.51,3.89,5.75,3.13,5.79,3.13a.22.22,0,0,0,.16-.15.24.24,0,0,0,0-.22,9.69,9.69,0,0,1-1-3.42,5.11,5.11,0,0,0,5.87,1.86l0,0L139,92.51H106.66ZM76.88,104.62l.23-.4A23.78,23.78,0,0,0,83,109.09l-1.89,3.27c-1.64,2.84-5.49,3.67-6.49,3.84A19.78,19.78,0,0,1,76.88,104.62ZM73,107.29a12.75,12.75,0,0,1-3,.92,19.66,19.66,0,0,1,2.3-11.58h0l.23-.39a24.1,24.1,0,0,0,4.28,7.59l-.32.55A7.42,7.42,0,0,1,73,107.29Zm8.53,5.32,1.89-3.27A24,24,0,0,0,90.52,112l-4.84,8.38c-1.64,2.83-5.49,3.66-6.49,3.83A19.76,19.76,0,0,1,81.49,112.61Zm4.62,8L91,112.07c.58.1,1.18.18,1.78.24V124l-2.52,4.37c-1.64,2.84-5.49,3.67-6.5,3.84A19.78,19.78,0,0,1,86.11,120.61Zm4.61,8,2.1-3.63V138.3a1.15,1.15,0,0,0,0,.19,12.19,12.19,0,0,1-4.42,1.69A19.79,19.79,0,0,1,90.72,128.6Zm-13.67-55h0a18.23,18.23,0,0,1,1.41-1.56c2.41-2.43,4.78-3.61,7.27-3.61A6.6,6.6,0,1,1,83.8,81.35a.26.26,0,0,0-.28.11,13.57,13.57,0,0,0,9.3,20.41v4.64A18.25,18.25,0,0,1,77,88.51a18,18,0,0,1,3-10,.35.35,0,1,0-.58-.39,18.74,18.74,0,0,0-3.13,10.4,19,19,0,0,0,16.54,18.7v4.6a23.42,23.42,0,0,1-15.77-38.2Zm-9.4,15h0l4.61-8L73,79.33a23.82,23.82,0,0,0-.76,16.27l-.45.78c-1.63,2.83-5.49,3.66-6.49,3.83a19.75,19.75,0,0,1,2.28-11.52ZM46.16,125.86,65.58,92.22a20.58,20.58,0,0,0-.7,8.32.25.25,0,0,0,.25.2h0a11.86,11.86,0,0,0,5.44-2.22L59.36,118C53.33,128.43,47.39,126.43,46.16,125.86Zm1.32,13.7,12.31-21.33,10.41-18a20.58,20.58,0,0,0-.7,8.32.25.25,0,0,0,.24.21h0a11.94,11.94,0,0,0,5.44-2.22L62.6,128.35C55,141.59,48.73,140,47.48,139.56Zm3,10.74,24.3-42.1a20.84,20.84,0,0,0-.7,8.33.25.25,0,0,0,.25.2h0a12,12,0,0,0,5.44-2.21L66.09,138.3C58,152.24,51.77,150.77,50.51,150.3Zm3.93,9.17,25-43.28a20.63,20.63,0,0,0-.7,8.33.24.24,0,0,0,.25.2h0a11.87,11.87,0,0,0,5.44-2.21L71,145.75C62.09,161.21,55.71,159.93,54.44,159.47Zm4.65,7.93,25-43.22a20.84,20.84,0,0,0-.7,8.33.27.27,0,0,0,.25.21h0a12.11,12.11,0,0,0,5.44-2.22l-13.4,23.19C66.74,169.14,60.36,167.85,59.09,167.4Zm20.81-5.07c-4.7,8.15-8.77,10.95-11.35,11.86a6,6,0,0,1-4.23.14L76.1,153.94h0l12.56-21.76a20.68,20.68,0,0,0-.7,8.34.25.25,0,0,0,.24.21h0a12.5,12.5,0,0,0,4.63-1.64,5.05,5.05,0,0,0,.08.68ZM92.82,196a11.59,11.59,0,0,1-11.4-9.59A7.41,7.41,0,0,1,85.13,180l6.14-3.55a3.12,3.12,0,0,1,3.09,0l6.15,3.55a7.46,7.46,0,0,1,3.71,6.43A11.61,11.61,0,0,1,92.82,196Zm2.61-24.11a.35.35,0,0,0,.3.53h1.5a6,6,0,0,1,6,6,7.83,7.83,0,0,0-6.83-4,.18.18,0,0,0-.18.19.17.17,0,0,0,.09.16l5.43,3.14.74.43a6,6,0,0,1,2.17,8.17,7.84,7.84,0,0,0-3.91-6.88l-6.15-3.54a3.4,3.4,0,0,0-1.74-.47,3.43,3.43,0,0,0-1.75.47l-6.14,3.54a7.75,7.75,0,0,0-2.92,3,8.08,8.08,0,0,0-1,3.92,6,6,0,0,1,2.17-8.17l.75-.43,5.42-3.14a.18.18,0,0,0-.09-.35,7.75,7.75,0,0,0-4,1.1,8.06,8.06,0,0,0-2.82,2.89,6,6,0,0,1,6-6h2.18a1.22,1.22,0,0,0,1-.62l9.47-16.4a6.05,6.05,0,0,0,2.87-1.63,6.06,6.06,0,0,0,0,3.3ZM97,154.55l3.88-6.73c1.72.77,3.39,1.54,5,2.31l-1.3,2.25A5.68,5.68,0,0,1,97,154.55Zm9.82,5.67a5.67,5.67,0,0,1-1.9-7.65l1.31-2.26q2.57,1.23,4.89,2.47ZM112,201.7h-.07a5.11,5.11,0,0,1-3.75-1.4c5-5,6.69-11.32,9-44,1.19.76,2.29,1.52,3.3,2.27L118.4,197.8A7.36,7.36,0,0,1,112,201.7Zm10.83,2.48c-1.51-1-4-4.66-4-6.3l2.06-39q1,.79,2,1.59c.6-.53,1.25-1.06,2-1.6l2.07,39C126.83,199.52,124.32,203.21,122.82,204.18ZM132,188.56c1.37,6.49,3.13,9.33,5.51,11.74a5.11,5.11,0,0,1-3.75,1.4,7.39,7.39,0,0,1-6.49-3.9l-2.07-39.24q1.51-1.14,3.3-2.28C129.64,173.08,130.66,182.48,132,188.56Zm9.35-31.68a5.65,5.65,0,0,1-2.47,3.34l-4.31-7.45c1.55-.82,3.19-1.65,4.9-2.47l1.31,2.27A5.65,5.65,0,0,1,141.3,156.88ZM154,171.82a1.21,1.21,0,0,0,1.05.62h2.18a6,6,0,0,1,6,6,7.85,7.85,0,0,0-6.83-4,.18.18,0,0,0-.19.19.19.19,0,0,0,.09.16l5.43,3.14.75.43a6,6,0,0,1,2.17,8.17,7.87,7.87,0,0,0-3.92-6.88l-6.14-3.54a3.46,3.46,0,0,0-1.75-.47,3.4,3.4,0,0,0-1.74.47l-6.15,3.54a7.75,7.75,0,0,0-2.92,3,8.18,8.18,0,0,0-1,3.92,6,6,0,0,1,2.17-8.17l.74-.43,5.43-3.14a.19.19,0,0,0-.09-.35,7.75,7.75,0,0,0-4,1.1,8.06,8.06,0,0,0-2.82,2.89,6,6,0,0,1,6-6h1.51a.35.35,0,0,0,.3-.53l-8.55-14.82,0-.11a6.06,6.06,0,0,0,0-3.19,6,6,0,0,0,2.85,1.63Zm-5.35-17.27a5.68,5.68,0,0,1-7.57-2.17l-1.3-2.26c1.6-.76,3.27-1.53,5-2.3Zm3-16.25a8,8,0,0,1-4.69,7.26c-11.58,5-19.29,9.29-24.11,13.31-4.83-4-12.53-8.27-24.11-13.32A8,8,0,0,1,94,138.3V120.65h4.9a31.67,31.67,0,0,1,6.67,3.73l.06,0a.15.15,0,0,0,.11,0h0a.17.17,0,0,0,.13-.1,12.75,12.75,0,0,1,2.81-3.69h4.16l-.08.12a34.07,34.07,0,0,0-2.28,3,.26.26,0,0,0,0,.23.25.25,0,0,0,.18.14c3.28.83,7,3.26,7.89,6.3V142l-.67.57c-1.53,1.25-3.41,2.8-3.41,4.87,0,1.27,1.12,3.16,4.18,3.2a6,6,0,0,0,4.16,1.68h0a6.23,6.23,0,0,0,2.34-.48,4.9,4.9,0,0,0,1.8-1.2c3.06,0,4.18-1.93,4.18-3.2,0-2.07-1.89-3.62-3.41-4.88l-.67-.56v-11.5c.85-3,4.61-5.47,7.89-6.3a.25.25,0,0,0,.18-.14.3.3,0,0,0,0-.23c-.69-1.07-1.46-2.08-2.32-3.17h4.1a12.71,12.71,0,0,1,2.8,3.69.17.17,0,0,0,.13.1h.05a.17.17,0,0,0,.11,0l.06,0a32,32,0,0,1,6.66-3.72h4.91ZM99.42,120.43a20.35,20.35,0,0,0,4.75-3.48,17.19,17.19,0,0,0,4.16,3.54,12.88,12.88,0,0,0-2.66,3.47A31.29,31.29,0,0,0,99.42,120.43Zm32.66.13c.9,1.13,1.71,2.16,2.43,3.24-3.35.94-7.07,3.45-7.93,6.59a.13.13,0,0,0,0,.06V142.1a.27.27,0,0,0,.08.19c.24.21.5.42.78.65,1.51,1.24,3.22,2.65,3.22,4.49,0,1.09-1,2.71-3.79,2.71a.28.28,0,0,0-.2.08,5.43,5.43,0,0,1-7.68,0,.28.28,0,0,0-.2-.08c-2.78,0-3.79-1.62-3.79-2.71,0-1.84,1.71-3.25,3.22-4.49.28-.23.54-.44.78-.65a.27.27,0,0,0,.08-.19V130.45a.13.13,0,0,0,0-.06c-.86-3.14-4.58-5.64-7.93-6.59.63-.94,1.36-1.84,2.06-2.72l.42-.52a.2.2,0,0,0,0-.21.24.24,0,0,0-.14-.17c-5-2.17-8.36-5.53-9.59-9.47A11.16,11.16,0,0,1,110.38,97c-2,2.62-4.21,7.08-1.58,11.78,1.34,2.38,5.07,5.26,7.71,5.26a9.36,9.36,0,0,1,3.75.74,6,6,0,0,0,5.13,0,9.31,9.31,0,0,1,3.74-.74c2.64,0,6.37-2.88,7.71-5.26,2.63-4.7.38-9.16-1.58-11.78a11.16,11.16,0,0,1,6.46,13.7c-1.24,4-4.63,7.31-9.55,9.47a.24.24,0,0,0-.14.17A.27.27,0,0,0,132.08,120.56Zm5.21-.07a17,17,0,0,0,4.15-3.54,20.4,20.4,0,0,0,4.76,3.48A31,31,0,0,0,140,124,13.08,13.08,0,0,0,137.29,120.49Zm14.32-.23h-4.9a20.87,20.87,0,0,1-5.15-3.74.18.18,0,0,0-.15,0,.21.21,0,0,0-.14.07,17,17,0,0,1-4.36,3.72h-3.73c4.61-2.22,7.8-5.53,9-9.39a11.72,11.72,0,0,0-7.63-14.66.26.26,0,0,0-.29.09.27.27,0,0,0,0,.31c2,2.34,4.85,7,2.1,11.94-1.27,2.26-4.8,5-7.27,5a9.62,9.62,0,0,0-3.92.78,6,6,0,0,1-2.38.55,6.09,6.09,0,0,1-2.39-.55,9.67,9.67,0,0,0-3.93-.78c-2.47,0-6-2.74-7.27-5-2.75-4.91.13-9.6,2.1-11.94a.27.27,0,0,0,0-.31.26.26,0,0,0-.29-.09,11.72,11.72,0,0,0-7.63,14.66c1.21,3.85,4.42,7.15,9.07,9.39H108.7a17.14,17.14,0,0,1-4.36-3.72.21.21,0,0,0-.14-.07.2.2,0,0,0-.15,0,20.87,20.87,0,0,1-5.15,3.74H94V93.7h57.6Zm29.7,54.07a6,6,0,0,1-4.23-.14c-2.59-.91-6.65-3.71-11.35-11.86l-13-22.59.09-.67a12.42,12.42,0,0,0,4.62,1.64h0a.25.25,0,0,0,.25-.21,20.68,20.68,0,0,0-.7-8.34l12.56,21.76h0Zm5.22-6.93c-1.26.47-7.62,1.79-16.57-13.71L156.57,130.5a12.11,12.11,0,0,0,5.44,2.22h0a.27.27,0,0,0,.25-.21,21,21,0,0,0-.71-8.33L174.18,146a0,0,0,0,1,0,0Zm4.66-7.93c-1.27.47-7.62,1.79-16.57-13.7l-13.43-23.26a11.89,11.89,0,0,0,5.43,2.21h0a.24.24,0,0,0,.25-.2,20.63,20.63,0,0,0-.7-8.33l12.91,22.36h0Zm3.93-9.17c-1.26.48-7.53,1.94-15.58-12L165.8,114.52a12,12,0,0,0,5.44,2.21h0a.25.25,0,0,0,.25-.2,20.84,20.84,0,0,0-.7-8.33ZM194,139.53c-2.54-.81-6.51-3.4-11-11.18l-12.6-21.83a11.94,11.94,0,0,0,5.44,2.22h0a.25.25,0,0,0,.24-.21,20.58,20.58,0,0,0-.7-8.32l22.72,39.35A6.06,6.06,0,0,1,194,139.53Z"/><path class="cls-7" d="M113.88,131a.21.21,0,0,0,.11,0,6.46,6.46,0,0,0,1.55-1.48.2.2,0,0,0,0-.24,7,7,0,0,0-1.55-1.6.21.21,0,0,0-.24,0,6.27,6.27,0,0,0-1.55,1.48.2.2,0,0,0,0,.24,7,7,0,0,0,1.56,1.6A.21.21,0,0,0,113.88,131Zm-1.27-1.76a6,6,0,0,1,1.26-1.19,6.1,6.1,0,0,1,1.27,1.31,6.25,6.25,0,0,1-1.26,1.19A6.34,6.34,0,0,1,112.61,129.28Z"/><path class="cls-7" d="M116.93,105.16l2.21.78a.25.25,0,0,1,.12.11.18.18,0,0,1,0,.16l-1,2.1a.59.59,0,0,0,.11.69.61.61,0,0,0,.69.12l2.12-1a.2.2,0,0,1,.17,0,.25.25,0,0,1,.11.12l.79,2.19a.61.61,0,0,0,1.14,0l.78-2.19a.23.23,0,0,1,.12-.12.2.2,0,0,1,.17,0l2.12,1a.6.6,0,0,0,.69-.13.59.59,0,0,0,.11-.68l-1-2.1a.22.22,0,0,1,0-.16.19.19,0,0,1,.12-.11l2.21-.78a.59.59,0,0,0,.4-.57.57.57,0,0,0-.4-.56l-2.21-.78a.18.18,0,0,1-.12-.12.22.22,0,0,1,0-.16l1-2.1a.6.6,0,0,0-.8-.8l-2.12,1a.25.25,0,0,1-.17,0,.2.2,0,0,1-.12-.12l-.78-2.19a.61.61,0,0,0-1.14,0l-.79,2.19a.22.22,0,0,1-.11.12.25.25,0,0,1-.17,0l-2.12-1a.59.59,0,0,0-.69.12.58.58,0,0,0-.11.68l1,2.1a.18.18,0,0,1,0,.16.23.23,0,0,1-.12.12l-2.21.78a.58.58,0,0,0-.41.56A.6.6,0,0,0,116.93,105.16Zm.13-.76,2.21-.78a.59.59,0,0,0,.35-.34.58.58,0,0,0,0-.48l-1-2.1a.21.21,0,0,1,0-.23.2.2,0,0,1,.24,0l2.12,1a.64.64,0,0,0,.49,0,.63.63,0,0,0,.34-.36l.78-2.19a.21.21,0,0,1,.2-.13.2.2,0,0,1,.19.13l.79,2.19a.63.63,0,0,0,.34.36.64.64,0,0,0,.49,0l2.12-1a.2.2,0,0,1,.27.27l-1,2.1a.62.62,0,0,0,0,.48.63.63,0,0,0,.36.34l2.21.78a.2.2,0,0,1,.14.19.19.19,0,0,1-.14.19l-2.21.78a.63.63,0,0,0-.36.34.64.64,0,0,0,0,.49l1,2.1a.17.17,0,0,1,0,.22.19.19,0,0,1-.23.05l-2.12-1a.6.6,0,0,0-.49,0,.59.59,0,0,0-.34.35l-.79,2.19a.18.18,0,0,1-.19.13.19.19,0,0,1-.2-.13l-.78-2.19a.6.6,0,0,0-.83-.34l-2.12,1a.22.22,0,0,1-.24-.05.2.2,0,0,1,0-.22l1-2.1a.6.6,0,0,0,0-.49.59.59,0,0,0-.35-.34l-2.21-.78a.19.19,0,0,1-.14-.19A.2.2,0,0,1,117.06,104.4Z"/><path class="cls-7" d="M131.88,127.68a.21.21,0,0,0-.24,0,7,7,0,0,0-1.55,1.6.2.2,0,0,0,0,.24,6.46,6.46,0,0,0,1.55,1.48.21.21,0,0,0,.11,0,.21.21,0,0,0,.12,0,7,7,0,0,0,1.56-1.6.2.2,0,0,0,0-.24A6.27,6.27,0,0,0,131.88,127.68Zm-.12,2.91a6.25,6.25,0,0,1-1.26-1.19,6.1,6.1,0,0,1,1.27-1.31,5.93,5.93,0,0,1,1.25,1.19A6.06,6.06,0,0,1,131.76,130.59Z"/><path class="cls-7" d="M115.88,141.11a.3.3,0,0,0,.3-.3l0-5.8a1.42,1.42,0,0,0-.43-1,1.47,1.47,0,0,0-1-.44h-1.24a.3.3,0,0,0-.3.3,1.4,1.4,0,0,0,1.24,1.43c0,1.11.09,4.76.94,5.61A.71.71,0,0,0,115.88,141.11Zm-2.39-7.27h1.24A1.16,1.16,0,0,1,115.9,135l0,5.81c-1.19,0-1.15-5.81-1.15-5.81S113.49,135,113.49,133.84Z"/><path class="cls-7" d="M132.15,133.54h-1.24a1.47,1.47,0,0,0-1,.44,1.42,1.42,0,0,0-.43,1l0,5.8a.3.3,0,0,0,.3.3.71.71,0,0,0,.51-.23c.85-.85.93-4.5.94-5.61a1.4,1.4,0,0,0,1.24-1.43A.3.3,0,0,0,132.15,133.54ZM130.91,135s0,5.81-1.15,5.81l0-5.81a1.16,1.16,0,0,1,1.17-1.16h1.24C132.15,135,130.91,135,130.91,135Z"/><path class="cls-7" d="M142.71,131a6,6,0,0,0-3,11.34l.1,0a.19.19,0,0,0,.12,0,.21.21,0,0,0,.08-.2,6.23,6.23,0,0,1-.11-1.15,6.72,6.72,0,0,1,6.75-6.68,6.26,6.26,0,0,1,1.16.1.21.21,0,0,0,.2-.08.2.2,0,0,0,0-.22A6.11,6.11,0,0,0,142.71,131Zm4,2.9a7.12,7.12,0,0,0-7.14,7.08,7,7,0,0,0,0,.8,5.65,5.65,0,0,1,3.14-10.39,5.73,5.73,0,0,1,4.77,2.55A7.32,7.32,0,0,0,146.67,133.89Z"/><path class="cls-7" d="M104.06,134.69a1.74,1.74,0,1,0,1.76,1.74A1.75,1.75,0,0,0,104.06,134.69Zm0,3.09a1.35,1.35,0,1,1,1.36-1.35A1.36,1.36,0,0,1,104.06,137.78Z"/><path class="cls-7" d="M104.06,138.55a1.74,1.74,0,1,0,1.76,1.74A1.75,1.75,0,0,0,104.06,138.55Zm0,3.09a1.35,1.35,0,1,1,1.36-1.35A1.36,1.36,0,0,1,104.06,141.64Z"/><path class="cls-7" d="M108.31,136a1.76,1.76,0,0,0-2.22,1.12,1.73,1.73,0,0,0,.11,1.32,1.78,1.78,0,0,0,1.56,1,1.78,1.78,0,0,0,1.68-1.21,1.73,1.73,0,0,0-.11-1.32A1.69,1.69,0,0,0,108.31,136Zm.75,2.07a1.37,1.37,0,0,1-2.51.19,1.34,1.34,0,0,1-.08-1,1.36,1.36,0,0,1,1.3-.93,1.58,1.58,0,0,1,.42.06,1.43,1.43,0,0,1,.79.68A1.34,1.34,0,0,1,109.06,138Z"/><path class="cls-7" d="M105.32,134.72a1.78,1.78,0,0,0,1,.33,1.75,1.75,0,0,0,1.42-.72,1.7,1.7,0,0,0,.32-1.29,1.77,1.77,0,0,0-3.16-.76,1.73,1.73,0,0,0-.32,1.3A1.78,1.78,0,0,0,105.32,134.72Zm-.07-2.2h0a1.36,1.36,0,0,1,1.9-.3,1.31,1.31,0,0,1,.54.88,1.33,1.33,0,0,1-.24,1,1.38,1.38,0,0,1-1.9.3,1.35,1.35,0,0,1-.54-.88A1.32,1.32,0,0,1,105.25,132.52Z"/><path class="cls-7" d="M100.35,134.33a1.75,1.75,0,0,0,1.42.72,1.76,1.76,0,0,0,1.74-1.47,1.73,1.73,0,0,0-.32-1.3,1.76,1.76,0,0,0-2.45-.38A1.71,1.71,0,0,0,100,133a1.65,1.65,0,0,0,.31,1.29Zm.08-1.23a1.31,1.31,0,0,1,.54-.88,1.39,1.39,0,0,1,.8-.26,1.36,1.36,0,0,1,1.1.56,1.32,1.32,0,0,1,.24,1,1.35,1.35,0,0,1-.54.88,1.38,1.38,0,0,1-1.9-.3h0A1.33,1.33,0,0,1,100.43,133.1Z"/><path class="cls-7" d="M99.81,136a1.73,1.73,0,0,0-1.12,2.19,1.76,1.76,0,0,0,1.67,1.21,1.78,1.78,0,0,0,1.56-1,1.73,1.73,0,0,0,.11-1.32A1.76,1.76,0,0,0,99.81,136Zm1.76,2.26a1.35,1.35,0,0,1-.79.67,1.36,1.36,0,0,1-1.72-.86,1.34,1.34,0,0,1,.08-1,1.42,1.42,0,0,1,.8-.68,1.47,1.47,0,0,1,.42-.06,1.36,1.36,0,0,1,1.29.93A1.34,1.34,0,0,1,101.57,138.23Z"/><path class="cls-7" d="M15,63.61a9.45,9.45,0,0,1,3.64-4,4.26,4.26,0,0,1,4.22.26,4.25,4.25,0,0,1,1.91,1.92,4.78,4.78,0,0,1,.34,2.62c.48-.08,1-.15,1.62-.2s1.2-.1,1.83-.12,1.28,0,1.93,0,1.3,0,1.91.08l-1.87,3.36H28.79c-.59,0-1.17,0-1.74,0s-1.12.06-1.64.11-1,.11-1.46.19l-.83,1.48L28,72.07l-1.68,3L13.17,67.71A20.61,20.61,0,0,1,14,65.53C14.38,64.81,14.7,64.17,15,63.61Zm2.66,1.26c-.12.22-.23.42-.31.6s-.16.35-.24.51l3.62,2,.47-.85a6,6,0,0,0,.94-2.66,1.77,1.77,0,0,0-1-1.54,1.69,1.69,0,0,0-1.81,0A5.29,5.29,0,0,0,17.67,64.87Z"/><path class="cls-7" d="M33.77,62.32,21.53,53.18l6.17-8.26L30,46.65,25.9,52.16,28.3,54,32,49.06l2.26,1.69-3.65,4.89,2.95,2.2,4.42-5.91,2.31,1.72Z"/><path class="cls-7" d="M34.25,37.45a9.59,9.59,0,0,1,4.52-2.93A4.38,4.38,0,0,1,42.87,36a4.44,4.44,0,0,1,1.56,4.1,9.61,9.61,0,0,1-2.82,4.64l-.75.78L44.52,49l-2.4,2.47L31.34,41a20,20,0,0,1,1.44-1.92C33.32,38.44,33.81,37.9,34.25,37.45Zm2.26,1.88c-.18.18-.34.36-.5.55s-.3.34-.41.48l3.16,3.07.75-.77A5.85,5.85,0,0,0,41,40.39a1.85,1.85,0,0,0-.66-1.9,2.31,2.31,0,0,0-.92-.58,1.8,1.8,0,0,0-1,0,3,3,0,0,0-1,.5A8.26,8.26,0,0,0,36.51,39.33Z"/><path class="cls-7" d="M57,38.08a7.7,7.7,0,0,1-2.47,1.35,5.09,5.09,0,0,1-2.3.19,5,5,0,0,1-2.06-.82,7.81,7.81,0,0,1-1.8-1.71l-5.83-7.5,2.71-2.11,5.66,7.27a5.09,5.09,0,0,0,1.13,1.11,3,3,0,0,0,1.11.49,2.08,2.08,0,0,0,1-.08,3.57,3.57,0,0,0,1-.56,2.83,2.83,0,0,0,1.14-1.86,3.62,3.62,0,0,0-1-2.55L49.72,24l2.71-2.11,5.83,7.49a7.67,7.67,0,0,1,1.22,2.18,4.87,4.87,0,0,1,.28,2.22A5,5,0,0,1,59,36,8,8,0,0,1,57,38.08Z"/><path class="cls-7" d="M69.18,29.75c-.73.42-1.47.81-2.21,1.18a19.22,19.22,0,0,1-2.43,1L57.19,19a22.47,22.47,0,0,1,1.86-1.41c.69-.47,1.35-.88,2-1.24a16.43,16.43,0,0,1,2.43-1.15,6.5,6.5,0,0,1,2.19-.42,3.77,3.77,0,0,1,1.85.47,3.88,3.88,0,0,1,1.45,1.52,3.26,3.26,0,0,1-.1,3.39,3.6,3.6,0,0,1,2.47.31,4.39,4.39,0,0,1,1.52,1.59,4.13,4.13,0,0,1,.27,4A9.15,9.15,0,0,1,69.18,29.75ZM63,22.39l1.45-.83a4.72,4.72,0,0,0,1.77-1.48,1.42,1.42,0,0,0-.06-1.48,1.32,1.32,0,0,0-1.25-.78,4.58,4.58,0,0,0-2,.7l-.82.48c-.28.18-.54.34-.75.5Zm1.3,2.28,2,3.42c.23-.1.48-.21.74-.35s.55-.28.85-.46a6,6,0,0,0,2-1.62,1.64,1.64,0,0,0,0-1.88,1.59,1.59,0,0,0-1.44-.92,4.68,4.68,0,0,0-2.19.73Z"/><path class="cls-7" d="M86.1,18.34l1.13,2.73L77.79,25,72,10.83l3.18-1.31,4.7,11.39Z"/><path class="cls-7" d="M85.19,5.79l3.29-1L93,19.39l-3.29,1Z"/><path class="cls-7" d="M103.55,17.22a7.44,7.44,0,0,1-6-.93,8.3,8.3,0,0,1-3-5.4,9.27,9.27,0,0,1-.07-3.43,7.24,7.24,0,0,1,1.12-2.78,6.8,6.8,0,0,1,2.12-2,10,10,0,0,1,4.71-1.31,12.38,12.38,0,0,1,1.42,0,6.92,6.92,0,0,1,1,.19c.29.08.49.14.62.19l-.44,2.92a7.91,7.91,0,0,0-3.87-.16,4.61,4.61,0,0,0-1.47.56A3.55,3.55,0,0,0,98.56,6.2a4.32,4.32,0,0,0-.62,1.66A6.17,6.17,0,0,0,98,10.14,8.21,8.21,0,0,0,98.63,12a4.27,4.27,0,0,0,1,1.4,3.62,3.62,0,0,0,1.53.76,4.81,4.81,0,0,0,2.07,0,9,9,0,0,0,1.3-.35c.38-.13.71-.27,1-.4a6.93,6.93,0,0,0,.74-.43l.58-.41,1.46,2.52a7.79,7.79,0,0,1-1.86,1.18A11.83,11.83,0,0,1,103.55,17.22Z"/><path class="cls-7" d="M121.57,15.14c-.2-.52-.41-1.06-.63-1.61l-.66-1.64-6,.29c-.17.56-.33,1.13-.5,1.7s-.32,1.12-.46,1.65l-3.57.18q.75-2.51,1.42-4.64c.44-1.42.88-2.76,1.32-4s.86-2.45,1.29-3.58.87-2.24,1.33-3.32L118.41,0C119,1,119.5,2.09,120,3.18s1.09,2.23,1.64,3.44,1.13,2.49,1.71,3.86,1.2,2.86,1.86,4.48Zm-4.7-11.6c-.06.22-.16.53-.29.92s-.28.84-.44,1.34-.35,1.07-.55,1.69-.41,1.25-.62,1.92l4.36-.21c-.26-.65-.52-1.27-.77-1.86s-.48-1.14-.7-1.63-.42-.92-.58-1.29S117,3.75,116.87,3.54Z"/><path class="cls-7" d="M139.67,1c.18.52.38,1.16.6,1.93s.45,1.58.68,2.46.45,1.78.66,2.7.42,1.78.61,2.58l1.44-2.23c.51-.79,1-1.57,1.53-2.32s1-1.45,1.46-2.1.87-1.18,1.21-1.61l3.08.53c0,1-.08,2.16-.17,3.42s-.2,2.57-.34,3.92-.28,2.72-.43,4.08-.3,2.64-.45,3.83l-3.3-.56c.21-1.47.42-3.08.65-4.81s.41-3.49.57-5.27l-1.22,1.87c-.45.68-.89,1.37-1.33,2.05l-1.27,2-1,1.59-2.37-.4q-.18-.76-.45-1.86l-.54-2.27c-.18-.79-.37-1.58-.56-2.38s-.37-1.51-.53-2.17c-.45,1.73-.85,3.45-1.22,5.16s-.7,3.29-1,4.75l-3.31-.57c.27-1.18.55-2.43.86-3.76s.63-2.66,1-4,.65-2.59,1-3.81.66-2.31,1-3.29Z"/><path class="cls-7" d="M168.46,16.71a9.54,9.54,0,0,1-1.71,3.06,7.25,7.25,0,0,1-2.34,1.81,6.5,6.5,0,0,1-2.78.61,9,9,0,0,1-5.61-2A6.74,6.74,0,0,1,154.24,18a7.12,7.12,0,0,1-.71-2.89,9.24,9.24,0,0,1,.6-3.45,8.75,8.75,0,0,1,1.73-3,7.22,7.22,0,0,1,2.41-1.8,6.85,6.85,0,0,1,2.79-.63,8.31,8.31,0,0,1,2.9.5,8.68,8.68,0,0,1,2.62,1.46,6.65,6.65,0,0,1,1.77,2.25,7,7,0,0,1,.7,2.9A9.42,9.42,0,0,1,168.46,16.71Zm-11-3.9a7,7,0,0,0-.42,2,4.6,4.6,0,0,0,.23,1.73,3.58,3.58,0,0,0,.86,1.37,4,4,0,0,0,1.5.91,4.06,4.06,0,0,0,1.73.24,3.53,3.53,0,0,0,1.54-.52,4.63,4.63,0,0,0,1.27-1.2,7.06,7.06,0,0,0,.93-1.82,7.33,7.33,0,0,0,.43-2,4.62,4.62,0,0,0-.23-1.74,3.49,3.49,0,0,0-.87-1.37,4.23,4.23,0,0,0-3.23-1.14,3.63,3.63,0,0,0-1.53.53A4.53,4.53,0,0,0,158.41,11,7,7,0,0,0,157.47,12.81Z"/><path class="cls-7" d="M178.89,27.39,177.52,30l-9-4.73,7.07-13.53,3,1.59-5.7,10.92Z"/><path class="cls-7" d="M194.78,32.6a9,9,0,0,1-2.5,2.47,6.37,6.37,0,0,1-2.85,1,7.35,7.35,0,0,1-3.09-.41,12.55,12.55,0,0,1-3.27-1.71c-.51-.36-1.08-.79-1.72-1.31a18.93,18.93,0,0,1-1.8-1.66l8.58-12.15a18.92,18.92,0,0,1,2.2,1.19c.73.45,1.35.85,1.85,1.21a13.35,13.35,0,0,1,2.66,2.41,7.32,7.32,0,0,1,1.44,2.72,6.2,6.2,0,0,1,0,3A9.27,9.27,0,0,1,194.78,32.6Zm-10.92-1.77c.12.11.27.22.44.35l.61.45a5.09,5.09,0,0,0,3.88,1.14,5,5,0,0,0,3.09-2.21A5,5,0,0,0,193,26.9a5,5,0,0,0-2.36-3.18l-.6-.41c-.21-.14-.42-.26-.61-.37Z"/><path class="cls-7" d="M208.25,45.23a9.57,9.57,0,0,1-2.82,2.08,7.11,7.11,0,0,1-2.88.67,6.54,6.54,0,0,1-2.79-.59,8.82,8.82,0,0,1-2.51-1.73,8.56,8.56,0,0,1-1.77-2.42,6.78,6.78,0,0,1-.69-2.77,7.14,7.14,0,0,1,.56-2.92,9.19,9.19,0,0,1,2-2.89,8.83,8.83,0,0,1,2.85-2A7.25,7.25,0,0,1,203.1,32a6.93,6.93,0,0,1,2.8.59,8.48,8.48,0,0,1,2.44,1.65,8.87,8.87,0,0,1,1.76,2.42,6.83,6.83,0,0,1,.69,2.78,7.34,7.34,0,0,1-.57,2.93A9.19,9.19,0,0,1,208.25,45.23Zm-8.38-8.11a7.1,7.1,0,0,0-1.21,1.65,4.52,4.52,0,0,0-.51,1.67,3.35,3.35,0,0,0,.21,1.6,4.37,4.37,0,0,0,2.46,2.39,3.44,3.44,0,0,0,1.62.16,4.49,4.49,0,0,0,1.65-.56,7.54,7.54,0,0,0,2.83-2.92,4.79,4.79,0,0,0,.52-1.68,3.56,3.56,0,0,0-.22-1.61,4,4,0,0,0-1-1.44,3.83,3.83,0,0,0-1.48-.93,3.57,3.57,0,0,0-1.62-.16,4.85,4.85,0,0,0-1.66.58A7.25,7.25,0,0,0,199.87,37.12Z"/><path class="cls-7" d="M207.14,56.13c.65-1.26,1.34-2.55,2.08-3.86s1.48-2.58,2.23-3.82,1.48-2.42,2.19-3.52S215,42.85,215.56,42l2.3,3c-.53.76-1.09,1.59-1.69,2.49l-1.77,2.7c-.58.91-1.14,1.77-1.68,2.6s-1,1.57-1.33,2.22c.71-.18,1.54-.42,2.48-.71l2.95-.93,3.07-1c1-.34,2-.67,2.86-1L225,54.31l-3.35,1.07c-1.25.39-2.57.79-4,1.19s-2.82.79-4.28,1.16-2.87.71-4.25,1Z"/><path class="cls-7" d="M218.27,73.27c.38-.41.76-.84,1.15-1.28l1.17-1.33-2.94-5.19-1.75.32q-.87.15-1.68.33L212.46,63c1.71-.31,3.31-.58,4.77-.82s2.87-.45,4.18-.63,2.58-.33,3.78-.46,2.39-.23,3.57-.31l1.6,2.84c-.67,1-1.37,1.92-2.1,2.89s-1.5,2-2.33,3-1.72,2.12-2.68,3.26-2,2.36-3.17,3.67Zm8.24-9.42c-.23,0-.55.1-.95.16l-1.4.21-1.75.26-2,.32,2.15,3.8,1.32-1.53c.42-.49.8-.94,1.13-1.36l.9-1.1C226.17,64.29,226.37,64,226.51,63.85Z"/><path class="cls-7" d="M.18,113.12a7.41,7.41,0,0,1,2.57-5.47,8.25,8.25,0,0,1,6-1.42,9.06,9.06,0,0,1,3.31.89A7.28,7.28,0,0,1,14.46,109a6.86,6.86,0,0,1,1.33,2.59,8.85,8.85,0,0,1,.25,3.15,10.47,10.47,0,0,1-.3,1.74,10.64,10.64,0,0,1-.45,1.35,7.19,7.19,0,0,1-.47,1q-.24.38-.36.54l-2.68-1.23a8.61,8.61,0,0,0,.78-1.58,7.94,7.94,0,0,0,.45-2.1,4.64,4.64,0,0,0-.12-1.57,3.41,3.41,0,0,0-.73-1.41,4.06,4.06,0,0,0-1.42-1.07,6.33,6.33,0,0,0-2.21-.55,8.08,8.08,0,0,0-2,.06,4.29,4.29,0,0,0-1.64.6,3.71,3.71,0,0,0-1.16,1.26,4.72,4.72,0,0,0-.56,2,8.89,8.89,0,0,0,0,1.34c0,.4.07.76.12,1.07a5.2,5.2,0,0,0,.2.84c.08.24.16.46.23.66l-2.83.7a8.18,8.18,0,0,1-.61-2.11A12.35,12.35,0,0,1,.18,113.12Z"/><path class="cls-7" d="M8.36,136.4a9.29,9.29,0,0,1-3.47-.4,7,7,0,0,1-2.57-1.46,6.57,6.57,0,0,1-1.64-2.33,8.77,8.77,0,0,1-.67-3,8.6,8.6,0,0,1,.35-3,6.8,6.8,0,0,1,1.38-2.5A7,7,0,0,1,4.14,122a9.45,9.45,0,0,1,3.41-.77,8.9,8.9,0,0,1,3.48.43,7.5,7.5,0,0,1,2.59,1.53,6.75,6.75,0,0,1,1.64,2.34,8.31,8.31,0,0,1,.67,2.86,8.9,8.9,0,0,1-.35,3,6.68,6.68,0,0,1-1.39,2.5,7.13,7.13,0,0,1-2.41,1.76A9.25,9.25,0,0,1,8.36,136.4Zm-.62-11.64a7.11,7.11,0,0,0-2,.38,4.77,4.77,0,0,0-1.51.88,3.61,3.61,0,0,0-.93,1.32A3.87,3.87,0,0,0,3,129.07a4,4,0,0,0,.44,1.69A3.49,3.49,0,0,0,4.54,132a4.59,4.59,0,0,0,1.6.71,6.94,6.94,0,0,0,2,.17,7,7,0,0,0,2-.39,4.62,4.62,0,0,0,1.52-.87,3.56,3.56,0,0,0,.93-1.33,4,4,0,0,0,.26-1.73,3.78,3.78,0,0,0-.46-1.69,3.46,3.46,0,0,0-1.07-1.21,4.54,4.54,0,0,0-1.61-.71A7,7,0,0,0,7.74,124.76Z"/><path class="cls-7" d="M17.19,142.55c-.41.37-.93.8-1.54,1.3s-1.29,1-2,1.57-1.47,1.1-2.23,1.65l-2.16,1.56,2.62.47c.92.16,1.83.34,2.73.52s1.72.36,2.49.54,1.43.35,2,.5l.69,3.05c-.95.37-2,.75-3.23,1.15s-2.44.8-3.75,1.19-2.61.79-3.92,1.17-2.56.74-3.72,1.06L4.37,155l4.69-1.25c1.68-.46,3.38-1,5.08-1.5l-2.2-.41-2.4-.44L7.24,151l-1.87-.35-.54-2.34,1.54-1.12,1.89-1.37,2-1.44,1.8-1.32c-1.76.25-3.5.54-5.23.85s-3.31.62-4.76.91l-.75-3.27,3.81-.65,4.05-.65c1.34-.21,2.64-.39,3.89-.55s2.39-.28,3.41-.36Z"/><path class="cls-7" d="M21.35,157.89l1.18,3.23L8.19,166.37,7,163.15Z"/><path class="cls-7" d="M14.35,174.09a5.14,5.14,0,0,0,.63,1,2.33,2.33,0,0,0,.63.54,1.1,1.1,0,0,0,.62.14,1.89,1.89,0,0,0,.62-.18,1.46,1.46,0,0,0,.82-1.17,10,10,0,0,0-.09-2.65c0-.53-.09-1.07-.1-1.61a5.59,5.59,0,0,1,.19-1.59,4.21,4.21,0,0,1,.71-1.42,3.87,3.87,0,0,1,1.46-1.11,4.32,4.32,0,0,1,1.89-.47,4,4,0,0,1,1.79.39,5,5,0,0,1,1.59,1.19,7.93,7.93,0,0,1,1.3,2,9.35,9.35,0,0,1,.85,2.54,9.2,9.2,0,0,1,.15,2l-2.87.28a10.47,10.47,0,0,0-.09-1.54,6.12,6.12,0,0,0-.59-1.81,3.45,3.45,0,0,0-1.08-1.45,1.16,1.16,0,0,0-1.17,0,1.14,1.14,0,0,0-.55.48,2,2,0,0,0-.23.74,4.76,4.76,0,0,0,0,.93c0,.34.06.71.11,1.11.07.84.11,1.59.11,2.25a5.27,5.27,0,0,1-.27,1.75,3.71,3.71,0,0,1-.83,1.37,5.59,5.59,0,0,1-1.57,1.07,4,4,0,0,1-3.64.09,7.24,7.24,0,0,1-3-3.56,12.36,12.36,0,0,1-.68-1.71,13,13,0,0,1-.36-1.43,8.72,8.72,0,0,1-.13-1.13,7.71,7.71,0,0,1,0-.85l2.88-.31a8.59,8.59,0,0,0,.13,1.81A8.76,8.76,0,0,0,14.35,174.09Z"/><path class="cls-7" d="M30,176.59l1.78,2.94-13.07,7.91-1.78-2.94Z"/><path class="cls-7" d="M27.82,200.28c.31-.46.64-.93,1-1.43l1-1.48-3.62-4.74-1.69.56-1.62.56-2.17-2.83c1.66-.55,3.19-1,4.62-1.48s2.77-.83,4.05-1.19,2.51-.69,3.68-1,2.33-.56,3.49-.79l2,2.59q-.81,1.56-1.68,3.15c-.59,1.06-1.22,2.16-1.9,3.31s-1.41,2.34-2.21,3.6-1.67,2.62-2.63,4.07Zm6.87-10.46-.93.28-1.36.41-1.69.5-1.94.58,2.66,3.47c.38-.59.75-1.15,1.09-1.69s.66-1,.94-1.5l.73-1.22Z"/><path class="cls-7" d="M37.69,211,47.83,199.6l7.71,6.85-1.91,2.16L48.49,204l-2,2.24,4.56,4.06-1.87,2.11-4.57-4.06-2.44,2.76,5.52,4.9-1.92,2.16Z"/><path class="cls-7" d="M59.68,224.45,58,226.88l-8.4-5.79,8.67-12.58,2.83,2-7,10.15Z"/><path class="cls-7" d="M61.6,229l7.09-13.53,9.14,4.79-1.34,2.56-6.09-3.19L69,222.27l5.4,2.83-1.31,2.5-5.4-2.83L66,228l6.54,3.43L71.19,234Z"/><path class="cls-7" d="M81.8,238.53a7.41,7.41,0,0,1-4.61-3.91,8.25,8.25,0,0,1,.2-6.19,9,9,0,0,1,1.73-3,7.36,7.36,0,0,1,2.4-1.8,6.81,6.81,0,0,1,2.85-.6,8.84,8.84,0,0,1,3.1.58,9.56,9.56,0,0,1,1.6.74,11.15,11.15,0,0,1,1.19.79,6.74,6.74,0,0,1,.8.7c.2.22.35.38.43.49l-1.89,2.26a8.15,8.15,0,0,0-1.32-1.16,7.69,7.69,0,0,0-1.9-1,4.58,4.58,0,0,0-1.55-.29,3.53,3.53,0,0,0-1.56.33,4.24,4.24,0,0,0-1.4,1.09,6.53,6.53,0,0,0-1.11,2,8.43,8.43,0,0,0-.46,1.93,4.14,4.14,0,0,0,.16,1.74,3.58,3.58,0,0,0,.91,1.45,4.82,4.82,0,0,0,1.77,1.06,9.44,9.44,0,0,0,1.29.38,10.17,10.17,0,0,0,1.07.17,5.05,5.05,0,0,0,.86,0l.7,0L87,239.22a8.07,8.07,0,0,1-2.19,0A12.29,12.29,0,0,1,81.8,238.53Z"/><path class="cls-7" d="M105.72,228.78l-.63,2.86-4.5-1-2.66,12L94.57,242l2.66-12.05-4.5-1,.64-2.86Z"/><path class="cls-7" d="M121.65,237.8a9.49,9.49,0,0,1-.84,3.4,6.91,6.91,0,0,1-1.78,2.36,6.5,6.5,0,0,1-2.52,1.33,8.65,8.65,0,0,1-3,.28,8.54,8.54,0,0,1-2.91-.73,6.81,6.81,0,0,1-2.31-1.68,7,7,0,0,1-1.44-2.61,9.22,9.22,0,0,1-.33-3.48,9.09,9.09,0,0,1,.87-3.4,7.57,7.57,0,0,1,1.85-2.37,6.84,6.84,0,0,1,2.53-1.33,8.2,8.2,0,0,1,2.93-.29,8.65,8.65,0,0,1,2.9.72,6.87,6.87,0,0,1,2.31,1.7,7.47,7.47,0,0,1,1.44,2.62A9.22,9.22,0,0,1,121.65,237.8ZM110,236.93a6.72,6.72,0,0,0,.12,2,4.6,4.6,0,0,0,.67,1.61,3.57,3.57,0,0,0,1.19,1.1,4.07,4.07,0,0,0,1.69.48,3.92,3.92,0,0,0,1.73-.23,3.41,3.41,0,0,0,1.35-.9,4.62,4.62,0,0,0,.91-1.49,6.75,6.75,0,0,0,.42-2,6.9,6.9,0,0,0-.12-2.06,4.73,4.73,0,0,0-.67-1.62,3.49,3.49,0,0,0-1.2-1.09,4.11,4.11,0,0,0-1.68-.48,3.94,3.94,0,0,0-1.74.23,3.65,3.65,0,0,0-1.34.92,4.67,4.67,0,0,0-.91,1.5A6.82,6.82,0,0,0,110,236.93Z"/><path class="cls-7" d="M129.5,229.56a9.37,9.37,0,0,1,5.34.84,4.22,4.22,0,0,1,2.1,3.66,4.32,4.32,0,0,1-.55,2.66,4.85,4.85,0,0,1-2,1.72c.34.36.69.77,1.07,1.24s.74.95,1.11,1.47.72,1,1.07,1.6.68,1.1,1,1.64l-3.83.28-1-1.46c-.32-.49-.65-1-1-1.43s-.67-.9-1-1.31-.65-.78-1-1.11l-1.69.12.4,5.56-3.43.25-1.08-15a20.16,20.16,0,0,1,2.29-.47C128.16,229.68,128.87,229.6,129.5,229.56Zm.41,2.91a6,6,0,0,0-.67.07l-.56.08.3,4.13,1-.07a5.82,5.82,0,0,0,2.73-.68,1.73,1.73,0,0,0,.72-1.71,1.66,1.66,0,0,0-1-1.53A5.18,5.18,0,0,0,129.91,232.47Z"/><path class="cls-7" d="M153.74,241.33c-.28-.48-.58-1-.89-1.47s-.63-1-.94-1.5l-5.82,1.3c-.07.59-.13,1.18-.2,1.77s-.12,1.16-.17,1.71l-3.48.78c.2-1.73.4-3.34.59-4.81s.4-2.87.62-4.18.42-2.56.65-3.75.47-2.36.74-3.5L148,227c.72.92,1.44,1.87,2.16,2.84s1.46,2,2.21,3.11,1.53,2.27,2.34,3.52,1.68,2.61,2.6,4.09Zm-6.62-10.62c0,.24-.07.56-.13,1s-.13.87-.2,1.4-.16,1.12-.26,1.75-.19,1.31-.28,2l4.26-1c-.37-.6-.73-1.16-1.07-1.7s-.67-1-1-1.48l-.79-1.18Z"/><path class="cls-7" d="M169.77,232.83l1,2.77-9.57,3.54-5.3-14.32,3.22-1.19,4.28,11.55Z"/><path class="cls-7" d="M173.24,215.91a4,4,0,0,1-1.36.46,3.24,3.24,0,0,1-1.32-.07,3,3,0,0,1-1.17-.6,3.66,3.66,0,0,1-.94-1.16l-.08-.15,1.95-1.06a1.83,1.83,0,0,0,1,.89,1.45,1.45,0,0,0,.95-.15,1.34,1.34,0,0,0,.64-.71,1.75,1.75,0,0,0-.2-1.31l2-1.05.08.15a3.81,3.81,0,0,1,.46,1.42,3.1,3.1,0,0,1-.82,2.46A4.13,4.13,0,0,1,173.24,215.91Zm11.25,12.74c-.4-.39-.82-.78-1.25-1.18l-1.31-1.19-5.25,2.83c.09.58.19,1.16.28,1.75s.2,1.15.3,1.69l-3.14,1.69c-.28-1.72-.52-3.31-.73-4.79s-.39-2.87-.54-4.19-.28-2.58-.38-3.78-.18-2.4-.23-3.57l2.87-1.55q1.41,1,2.85,2.16c.95.74,1.94,1.54,3,2.39s2.09,1.77,3.21,2.75,2.32,2.07,3.61,3.24Zm-9.24-8.44c0,.23.08.55.13,1s.12.87.19,1.4.15,1.12.23,1.76.17,1.31.27,2l3.84-2.07-1.5-1.35c-.48-.43-.92-.81-1.33-1.16l-1.09-.92Z"/><path class="cls-7" d="M202.27,216.38a7.44,7.44,0,0,1-5.7,2,8.27,8.27,0,0,1-5.25-3.29,9.09,9.09,0,0,1-1.7-3,7.36,7.36,0,0,1-.34-3,6.91,6.91,0,0,1,.91-2.77,8.85,8.85,0,0,1,2.06-2.38,10.77,10.77,0,0,1,1.45-1,13.53,13.53,0,0,1,1.28-.63,8.92,8.92,0,0,1,1-.33c.29-.07.5-.11.64-.13l1,2.78a8,8,0,0,0-1.68.55,7.62,7.62,0,0,0-1.8,1.15,4.51,4.51,0,0,0-1,1.19,3.51,3.51,0,0,0-.5,1.51,4.28,4.28,0,0,0,.24,1.76,6.29,6.29,0,0,0,1.16,2,8.4,8.4,0,0,0,1.43,1.38,4.23,4.23,0,0,0,1.59.73,3.69,3.69,0,0,0,1.71,0,4.91,4.91,0,0,0,1.81-1,9.91,9.91,0,0,0,1-.92c.26-.3.49-.58.68-.84a5.58,5.58,0,0,0,.45-.73c.12-.23.22-.44.31-.63l2.49,1.52a8.09,8.09,0,0,1-1.08,1.92A12.15,12.15,0,0,1,202.27,216.38Z"/><path class="cls-7" d="M209.05,209.87l-11.16-10.43,7-7.53,2.11,2-4.69,5,2.19,2,4.16-4.46,2.07,1.93-4.17,4.46,2.69,2.51,5-5.4,2.11,2Z"/><path class="cls-7" d="M225.46,189.76q-3-.28-6.08-.35a52.59,52.59,0,0,0-6,.23l8.2,5.74-1.95,2.78-12.51-8.75,1.6-2.3c.68-.12,1.47-.22,2.39-.29s1.87-.14,2.88-.18,2-.06,3.08-.06,2,0,3,0l-7.38-5.17,2-2.8,12.52,8.75Z"/><path class="cls-7" d="M221.43,165.48l2.62,1.33-2.09,4.1,11,5.59-1.56,3.07-11-5.59-2.08,4.1-2.61-1.32Z"/><path class="cls-7" d="M223.58,159.12a9.49,9.49,0,0,1,2.9-4.56,4.24,4.24,0,0,1,4.19-.47,4.29,4.29,0,0,1,2.22,1.56,4.92,4.92,0,0,1,.79,2.53c.46-.16,1-.32,1.55-.48s1.18-.3,1.79-.43,1.25-.25,1.9-.35,1.28-.18,1.9-.25l-1.28,3.63-1.71.3c-.58.1-1.15.21-1.71.34s-1.09.25-1.6.39a14.47,14.47,0,0,0-1.4.44l-.56,1.6,5.26,1.85-1.14,3.24-14.21-5a19.63,19.63,0,0,1,.48-2.3C223.16,160.41,223.37,159.72,223.58,159.12Zm2.83.79c-.08.23-.15.45-.2.64s-.1.37-.14.54l3.91,1.38.32-.92a5.83,5.83,0,0,0,.46-2.78,1.77,1.77,0,0,0-1.28-1.34,1.72,1.72,0,0,0-1.79.27A5.29,5.29,0,0,0,226.41,159.91Z"/><path class="cls-7" d="M244,141.6c-.55.06-1.12.14-1.71.23l-1.75.26L239.45,148l1.53.88,1.5.84-.66,3.51q-2.26-1.31-4.18-2.46c-1.27-.77-2.47-1.51-3.59-2.22s-2.18-1.42-3.18-2.09-2-1.37-2.92-2.08l.61-3.2c1.13-.29,2.29-.58,3.47-.85s2.42-.53,3.73-.79,2.69-.51,4.16-.75,3.06-.5,4.79-.76Zm-12.38,1.85.83.5,1.2.74,1.51.93c.55.34,1.12.69,1.73,1l.81-4.29-2,.32L234,143l-1.4.26Z"/><path class="cls-7" d="M242.6,123.5l3,.16L245,133.85,229.74,133l.18-3.44,12.31.68Z"/><path class="cls-7" d="M228.49,113.54a3.94,3.94,0,0,1-.13,1.43,3.2,3.2,0,0,1-.59,1.18,3.13,3.13,0,0,1-1,.84,3.65,3.65,0,0,1-1.44.39l-.18,0-.18-2.22a1.87,1.87,0,0,0,1.21-.54,1.36,1.36,0,0,0,.24-.93,1.4,1.4,0,0,0-.39-.88,1.77,1.77,0,0,0-1.28-.33l-.18-2.22.17,0a3.78,3.78,0,0,1,1.49.16,3.27,3.27,0,0,1,1.15.66,3.37,3.37,0,0,1,.77,1.07A4,4,0,0,1,228.49,113.54Zm16.18-5.2c-.52.21-1,.44-1.59.68l-1.61.72.48,5.94,1.72.44c.58.15,1.13.29,1.67.41l.29,3.56q-2.52-.66-4.68-1.26c-1.43-.4-2.78-.79-4-1.18s-2.48-.78-3.63-1.17-2.26-.79-3.36-1.22l-.27-3.25q1.53-.89,3.12-1.74c1.07-.58,2.2-1.17,3.39-1.76s2.45-1.2,3.8-1.83,2.82-1.3,4.42-2Zm-11.44,5.08.93.27,1.36.39,1.7.49c.62.19,1.27.37,1.95.56l-.36-4.35-1.84.83-1.6.76-1.27.62Z"/><path class="cls-8" d="M239.13,90.56l-3.46.64a.4.4,0,0,0-.26.62l2,2.9a.4.4,0,0,1-.55.56l-2.9-2a.4.4,0,0,0-.62.26L232.69,97a.4.4,0,0,1-.79,0l-.64-3.46a.4.4,0,0,0-.62-.26l-2.89,2a.4.4,0,0,1-.56-.56l2-2.9a.4.4,0,0,0-.26-.62l-3.45-.64a.4.4,0,0,1,0-.79l3.45-.63a.4.4,0,0,0,.26-.62l-2-2.9a.4.4,0,0,1,.56-.56l2.89,2a.4.4,0,0,0,.62-.26l.64-3.46a.4.4,0,0,1,.79,0l.64,3.46a.4.4,0,0,0,.62.26l2.9-2a.4.4,0,0,1,.55.56l-2,2.9a.4.4,0,0,0,.26.62l3.46.63A.4.4,0,0,1,239.13,90.56Z"/><path class="cls-8" d="M20.1,90.56l-3.46.64a.4.4,0,0,0-.26.62l2,2.9a.4.4,0,0,1-.55.56l-2.9-2a.4.4,0,0,0-.62.26L13.66,97a.4.4,0,0,1-.79,0l-.64-3.46a.4.4,0,0,0-.62-.26l-2.89,2a.4.4,0,0,1-.56-.56l2-2.9a.4.4,0,0,0-.26-.62l-3.45-.64a.4.4,0,0,1,0-.79l3.45-.63a.4.4,0,0,0,.26-.62l-2-2.9a.4.4,0,0,1,.56-.56l2.89,2a.4.4,0,0,0,.62-.26l.64-3.46a.4.4,0,0,1,.79,0l.64,3.46a.4.4,0,0,0,.62.26l2.9-2a.4.4,0,0,1,.55.56l-2,2.9a.4.4,0,0,0,.26.62l3.46.63A.4.4,0,0,1,20.1,90.56Z"/></g></g></svg>